<?xml version="1.0" encoding="UTF-8"?>
<svg id="Laag_1" xmlns="http://www.w3.org/2000/svg" version="1.1" viewBox="0 0 161.52 60.74">
  <!-- Generator: Adobe Illustrator 30.2.1, SVG Export Plug-In . SVG Version: 2.1.1 Build 1)  -->
  <defs>
    <style>
      .st0 {
        fill: #0062EB;
      }

      .st1 {
        fill: #fff;
      }
    </style>
  </defs>
  <polygon class="st0" points="153.55 10.86 143.02 10.86 135.57 10.86 135.57 20.04 143.02 20.04 143.02 50.73 154.11 50.73 154.11 10.86 153.55 10.86"/>
  <g>
    <path class="st1" d="M41.95,57.4L93.38,5.97l-1.24-1.24-9.55,9.55c-1.46-1.08-3.07-1.98-4.85-2.67-2.63-1.03-5.52-1.54-8.65-1.54s-6.02.51-8.65,1.54c-2.63,1.03-4.92,2.47-6.86,4.34-1.94,1.87-3.44,4.05-4.51,6.55-1.06,2.5-1.6,5.25-1.6,8.23s.54,5.69,1.62,8.23c.86,2.01,2,3.8,3.41,5.39l-11.8,11.8,1.24,1.24ZM60.14,25c.82-1.62,2-2.87,3.53-3.75,1.53-.88,3.34-1.32,5.43-1.32,1.57,0,2.98.25,4.23.76.67.27,1.29.61,1.86,1.01l-14.97,14.97c-.23-.44-.44-.9-.61-1.39-.47-1.34-.7-2.86-.7-4.54,0-2.2.41-4.12,1.23-5.74Z"/>
    <path class="st1" d="M87.27,19.15l-8.34,8.34c.23,1,.36,2.08.36,3.24,0,2.2-.41,4.13-1.23,5.77-.82,1.64-2,2.91-3.53,3.81-1.53.9-3.34,1.34-5.43,1.34-1.37,0-2.61-.2-3.74-.59l-7.54,7.54c.87.5,1.78.95,2.74,1.33,2.63,1.04,5.52,1.57,8.65,1.57s5.95-.51,8.57-1.54c2.61-1.03,4.89-2.48,6.83-4.37,1.94-1.88,3.44-4.09,4.51-6.61s1.6-5.25,1.6-8.2-.53-5.74-1.6-8.26c-.51-1.21-1.13-2.32-1.85-3.38Z"/>
  </g>
  <path class="st1" d="M43.46,22.51c-1.07-2.45-2.57-4.55-4.51-6.31-1.94-1.76-4.23-3.1-6.87-4.04-2.64-.93-5.52-1.4-8.66-1.4H6.59v39.93h16.94c3.1,0,5.96-.47,8.58-1.4,2.62-.93,4.9-2.28,6.84-4.04,1.94-1.76,3.45-3.86,4.51-6.31,1.07-2.45,1.6-5.19,1.6-8.22s-.53-5.77-1.6-8.22ZM32.38,36.5c-.82,1.57-2,2.74-3.53,3.5-1.53.77-3.35,1.15-5.44,1.15h-5.61v-20.86h5.61c2.09,0,3.9.38,5.41,1.15,1.51.77,2.69,1.92,3.53,3.45.84,1.53,1.26,3.46,1.26,5.78s-.41,4.26-1.23,5.83Z"/>
  <path class="st1" d="M115.93,51.36c-3.07,0-5.92-.51-8.55-1.54-2.64-1.03-4.94-2.48-6.92-4.35-1.98-1.87-3.52-4.07-4.63-6.59s-1.65-5.26-1.65-8.22.55-5.74,1.65-8.24c1.1-2.5,2.64-4.67,4.6-6.5,1.96-1.83,4.25-3.26,6.87-4.29,2.62-1.03,5.46-1.54,8.52-1.54s5.94.49,8.52,1.46c2.58.97,4.82,2.32,6.73,4.04l-7.46,7.51c-.9-.97-1.99-1.74-3.28-2.3-1.29-.56-2.79-.84-4.51-.84-1.5,0-2.87.24-4.12.73-1.25.49-2.33,1.2-3.22,2.13-.9.93-1.6,2.07-2.1,3.39-.51,1.33-.76,2.81-.76,4.46s.25,3.19.76,4.51c.5,1.33,1.2,2.46,2.1,3.39.9.93,1.97,1.65,3.22,2.16,1.25.5,2.63.76,4.12.76,1.68,0,3.19-.26,4.51-.78,1.33-.52,2.48-1.29,3.45-2.3l7.51,7.51c-1.98,1.72-4.21,3.06-6.67,4.01-2.47.95-5.36,1.43-8.69,1.43Z"/>
</svg>